<?xml version="1.0" encoding="UTF-8"?>
<!DOCTYPE svg PUBLIC "-//W3C//DTD SVG 1.1//EN" "http://www.w3.org/Graphics/SVG/1.1/DTD/svg11.dtd">
<svg xmlns="http://www.w3.org/2000/svg" version="1.1" width="270px" height="323px" style="shape-rendering:geometricPrecision; text-rendering:geometricPrecision; image-rendering:optimizeQuality; fill-rule:evenodd; clip-rule:evenodd" xmlns:xlink="http://www.w3.org/1999/xlink">
<g><path style="opacity:0.343" fill="#fdbfcb" d="M 169.5,213.5 C 169.167,213.5 168.833,213.5 168.5,213.5C 173.133,204.278 176.799,194.612 179.5,184.5C 185.925,184.87 192.258,184.37 198.5,183C 199.602,180.599 199.769,178.099 199,175.5C 190.251,174.516 181.418,174.183 172.5,174.5C 167.493,187.514 161.159,199.848 153.5,211.5C 152.833,211.5 152.167,211.5 151.5,211.5C 147.627,210.937 143.627,209.937 139.5,208.5C 139.5,207.833 139.5,207.167 139.5,206.5C 147.802,197.36 155.968,188.026 164,178.5C 168.92,167.592 166.087,159.425 155.5,154C 149.5,153.333 143.5,153.333 137.5,154C 126.865,157.601 116.198,161.101 105.5,164.5C 103.971,164.471 102.804,163.804 102,162.5C 101.578,160.645 101.078,158.811 100.5,157C 102.261,153.569 104.428,150.403 107,147.5C 124.422,132.237 142.255,117.57 160.5,103.5C 158.694,100.528 156.694,97.6947 154.5,95C 152.711,94.4795 151.044,94.8129 149.5,96C 135.833,107 122.167,118 108.5,129C 103.546,133.783 98.8798,138.616 94.5,143.5C 95.7494,139.21 95.7494,134.876 94.5,130.5C 96.3668,129.203 96.7002,127.703 95.5,126C 98.0623,115.84 101.896,106.34 107,97.5C 107.333,97.8333 107.667,98.1667 108,98.5C 108.11,96.1517 109.277,94.6517 111.5,94C 111.167,93.6667 110.833,93.3333 110.5,93C 124.351,78.1603 140.517,69.327 159,66.5C 164.74,66.6733 170.407,66.6733 176,66.5C 206.039,71.3498 226.373,88.0164 237,116.5C 237.931,121.391 239.098,126.224 240.5,131C 239.191,137.654 239.191,144.321 240.5,151C 238.832,152.567 238.498,154.234 239.5,156C 239.095,156.945 238.428,157.612 237.5,158C 238.925,159.714 238.592,161.047 236.5,162C 236.957,162.414 237.291,162.914 237.5,163.5C 227.535,189.362 209.035,205.695 182,212.5C 181.228,212.355 180.561,212.022 180,211.5C 179.612,212.428 178.945,213.095 178,213.5C 175.192,213.406 172.358,213.406 169.5,213.5 Z"/></g>
<g><path style="opacity:0.975" fill="#31528f" d="M 94.5,143.5 C 95.3522,150 96.8522,157 99,164.5C 100.43,169.035 102.596,173.035 105.5,176.5C 105.5,177.167 105.167,177.5 104.5,177.5C 96.1286,176.96 90.962,172.627 89,164.5C 86.628,156.318 88.4614,149.318 94.5,143.5 Z"/></g>
<g><path style="opacity:1" fill="#626c9d" d="M 139.5,206.5 C 137.549,206.773 136.049,206.107 135,204.5C 134.586,204.957 134.086,205.291 133.5,205.5C 132.265,204.66 131.265,203.66 130.5,202.5C 130.586,201.504 130.252,200.671 129.5,200C 132.887,196.039 135.887,191.873 138.5,187.5C 139.833,187.5 140.5,186.833 140.5,185.5C 144.102,181.395 147.935,177.395 152,173.5C 153.202,171.323 153.702,168.989 153.5,166.5C 148.483,165.265 143.483,165.432 138.5,167C 130.769,169.466 123.103,172.133 115.5,175C 112.243,176.043 108.91,176.543 105.5,176.5C 102.596,173.035 100.43,169.035 99,164.5C 96.8522,157 95.3522,150 94.5,143.5C 98.8798,138.616 103.546,133.783 108.5,129C 122.167,118 135.833,107 149.5,96C 151.044,94.8129 152.711,94.4795 154.5,95C 156.694,97.6947 158.694,100.528 160.5,103.5C 142.255,117.57 124.422,132.237 107,147.5C 104.428,150.403 102.261,153.569 100.5,157C 101.078,158.811 101.578,160.645 102,162.5C 102.804,163.804 103.971,164.471 105.5,164.5C 116.198,161.101 126.865,157.601 137.5,154C 143.5,153.333 149.5,153.333 155.5,154C 166.087,159.425 168.92,167.592 164,178.5C 155.968,188.026 147.802,197.36 139.5,206.5 Z"/></g>
<g><path style="opacity:0.232" fill="#fdbecb" d="M 140.5,185.5 C 130.652,185.173 120.986,185.506 111.5,186.5C 110.833,186.167 110.167,185.833 109.5,185.5C 107.844,182.861 106.178,180.195 104.5,177.5C 105.167,177.5 105.5,177.167 105.5,176.5C 108.91,176.543 112.243,176.043 115.5,175C 123.103,172.133 130.769,169.466 138.5,167C 143.483,165.432 148.483,165.265 153.5,166.5C 153.702,168.989 153.202,171.323 152,173.5C 147.935,177.395 144.102,181.395 140.5,185.5 Z"/></g>
<g><path style="opacity:1" fill="#3f99c8" d="M 172.5,174.5 C 181.418,174.183 190.251,174.516 199,175.5C 199.769,178.099 199.602,180.599 198.5,183C 192.258,184.37 185.925,184.87 179.5,184.5C 179.918,183.778 180.584,183.278 181.5,183C 177.333,181.331 174.333,178.498 172.5,174.5 Z"/></g>
<g><path style="opacity:0.957" fill="#323131" d="M 109.5,185.5 C 110.167,185.833 110.833,186.167 111.5,186.5C 112.364,187.688 113.364,188.855 114.5,190C 104.004,192.16 98.0042,198.494 96.5,209C 96.3866,210.699 97.0532,211.866 98.5,212.5C 97.9708,218.913 99.3041,224.913 102.5,230.5C 100.647,231.76 98.8138,231.76 97,230.5C 90.9231,215.686 85.4231,200.686 80.5,185.5C 90.1667,185.5 99.8333,185.5 109.5,185.5 Z"/></g>
<g><path style="opacity:0.285" fill="#f9bcc9" d="M 138.5,187.5 C 135.887,191.873 132.887,196.039 129.5,200C 130.252,200.671 130.586,201.504 130.5,202.5C 129.391,202.443 128.391,202.11 127.5,201.5C 125.672,200.206 123.672,199.206 121.5,198.5C 121.5,197.5 121.5,196.5 121.5,195.5C 119.053,195.385 117.053,194.385 115.5,192.5C 122.516,188.959 130.183,187.292 138.5,187.5 Z"/></g>
<g><path style="opacity:1" fill="#4db0e2" d="M 172.5,174.5 C 174.333,178.498 177.333,181.331 181.5,183C 180.584,183.278 179.918,183.778 179.5,184.5C 176.799,194.612 173.133,204.278 168.5,213.5C 167.027,212.929 165.36,212.929 163.5,213.5C 162.687,212.347 161.687,212.347 160.5,213.5C 159.808,212.975 159.308,212.308 159,211.5C 157.224,212.536 155.391,212.536 153.5,211.5C 161.159,199.848 167.493,187.514 172.5,174.5 Z"/></g>
<g><path style="opacity:0.791" fill="#565153" d="M 111.5,186.5 C 120.986,185.506 130.652,185.173 140.5,185.5C 140.5,186.833 139.833,187.5 138.5,187.5C 130.183,187.292 122.516,188.959 115.5,192.5C 106.953,196.714 101.286,203.381 98.5,212.5C 97.0532,211.866 96.3866,210.699 96.5,209C 98.0042,198.494 104.004,192.16 114.5,190C 113.364,188.855 112.364,187.688 111.5,186.5 Z"/></g>
<g><path style="opacity:0.629" fill="#e8f6f4" d="M 74.5,222.5 C 73.8333,224.833 73.1667,227.167 72.5,229.5C 72.5,230.167 72.5,230.833 72.5,231.5C 69.7835,231.678 67.1168,232.178 64.5,233C 63.8828,235.277 63.2161,237.444 62.5,239.5C 62.1667,239.5 61.8333,239.5 61.5,239.5C 62.9417,229.818 62.7751,220.152 61,210.5C 59.9887,209.663 58.8221,209.33 57.5,209.5C 50.1618,207.314 42.8285,206.98 35.5,208.5C 32.3979,208.154 29.5645,208.821 27,210.5C 25,220.833 25,231.167 27,241.5C 31.8098,244.102 36.9764,245.102 42.5,244.5C 46.5662,244.693 50.5662,244.36 54.5,243.5C 57.3208,243.455 59.6541,242.455 61.5,240.5C 61.5,241.833 62.1667,242.5 63.5,242.5C 61.6079,244.814 60.2746,247.481 59.5,250.5C 59.5,251.167 59.1667,251.5 58.5,251.5C 57.7611,251.631 57.0944,251.464 56.5,251C 58.3188,248.944 58.9855,246.777 58.5,244.5C 55.9159,245.393 53.2492,245.726 50.5,245.5C 50.0371,248.482 49.7038,251.482 49.5,254.5C 48.8333,254.167 48.1667,253.833 47.5,253.5C 47.9926,251.194 48.3259,248.861 48.5,246.5C 45.5,246.5 42.5,246.5 39.5,246.5C 39.448,248.903 39.7814,251.236 40.5,253.5C 39.8485,254.091 39.1818,254.757 38.5,255.5C 37.8933,255.376 37.56,255.043 37.5,254.5C 38.7757,251.97 38.7757,249.303 37.5,246.5C 34.8434,245.741 32.1767,245.074 29.5,244.5C 29.1667,244.833 28.8333,245.167 28.5,245.5C 29.7878,247.739 30.7878,250.072 31.5,252.5C 30.8333,252.5 30.5,252.833 30.5,253.5C 29.5987,252.71 28.9321,251.71 28.5,250.5C 27.5448,248.254 26.8782,245.921 26.5,243.5C 23.9009,243.451 21.7342,242.451 20,240.5C 19.8333,240.833 19.6667,241.167 19.5,241.5C 21.3897,244.654 23.723,247.321 26.5,249.5C 26.1667,249.5 25.8333,249.5 25.5,249.5C 24.325,249.719 23.325,249.386 22.5,248.5C 20.8199,247.231 19.6532,245.564 19,243.5C 18.3333,244.833 17.6667,244.833 17,243.5C 16.5065,241.866 16.3398,240.199 16.5,238.5C 15.5,238.5 14.5,238.5 13.5,238.5C 13.5,230.167 13.5,221.833 13.5,213.5C 14.5,213.5 15.5,213.5 16.5,213.5C 16.5,211.833 16.5,210.167 16.5,208.5C 17.5,208.5 18.5,208.5 19.5,208.5C 19.5,207.5 19.5,206.5 19.5,205.5C 20.5,205.5 21.5,205.5 22.5,205.5C 22.5,204.5 22.5,203.5 22.5,202.5C 23.5,202.5 24.5,202.5 25.5,202.5C 25.5,201.5 25.5,200.5 25.5,199.5C 27.1667,199.5 28.8333,199.5 30.5,199.5C 30.5,198.5 30.5,197.5 30.5,196.5C 34.9104,196.969 38.9104,195.969 42.5,193.5C 45.2411,194.019 47.9077,194.019 50.5,193.5C 52.2705,194.035 52.6039,194.869 51.5,196C 53.4727,196.495 55.4727,196.662 57.5,196.5C 57.5,197.5 57.5,198.5 57.5,199.5C 59.5,199.5 61.5,199.5 63.5,199.5C 63.5,200.5 63.5,201.5 63.5,202.5C 64.5,202.5 65.5,202.5 66.5,202.5C 67.1667,204.5 67.8333,206.5 68.5,208.5C 69.5,208.5 70.5,208.5 71.5,208.5C 71.5,210.167 71.5,211.833 71.5,213.5C 72.5,213.5 73.5,213.5 74.5,213.5C 74.5,216.5 74.5,219.5 74.5,222.5 Z M 47.5,212.5 C 47.5,213.5 47.5,214.5 47.5,215.5C 48.5,215.5 49.5,215.5 50.5,215.5C 50.6567,216.873 50.49,218.207 50,219.5C 46.2756,216.76 42.109,215.926 37.5,217C 36.9535,217.925 36.2868,218.758 35.5,219.5C 35.0941,218.443 35.0941,217.109 35.5,215.5C 39.1119,213.568 43.1119,212.568 47.5,212.5 Z M 32.5,221.5 C 33.2674,222.172 33.9341,223.005 34.5,224C 33.5939,225.699 33.2606,227.533 33.5,229.5C 35.5,229.5 37.5,229.5 39.5,229.5C 39.5,231.5 39.5,233.5 39.5,235.5C 43.1817,235.335 46.8484,235.501 50.5,236C 48.5273,236.495 46.5273,236.662 44.5,236.5C 44.1667,240.5 43.8333,240.5 43.5,236.5C 41.4727,236.662 39.4727,236.495 37.5,236C 38.6537,235.086 38.487,234.253 37,233.5C 36.6667,233.833 36.3333,234.167 36,234.5C 35.8038,232.714 34.9705,231.381 33.5,230.5C 32.5159,227.572 32.1826,224.572 32.5,221.5 Z M 43.5,223.5 C 44.2891,223.783 44.9558,224.283 45.5,225C 44.184,225.528 43.5173,225.028 43.5,223.5 Z M 40.5,226.5 C 42.337,226.639 42.6704,227.306 41.5,228.5C 40.7025,228.043 40.3691,227.376 40.5,226.5 Z M 53.5,231.5 C 54.6861,225.919 55.1861,225.586 55,230.5C 54.6174,231.056 54.1174,231.389 53.5,231.5 Z"/></g>
<g><path style="opacity:1" fill="#38b5da" d="M 59.5,203.5 C 59.8966,202.475 60.5632,202.308 61.5,203C 64.5968,205.391 66.7635,208.224 68,211.5C 66.3523,210.283 64.519,209.45 62.5,209C 61.3913,207.124 60.3913,205.291 59.5,203.5 Z"/></g>
<g><path style="opacity:1" fill="#28b86b" d="M 26.5,202.5 C 27.2389,202.369 27.9056,202.536 28.5,203C 27.529,206.794 25.1957,209.294 21.5,210.5C 20.479,209.998 20.3123,209.332 21,208.5C 23.0396,206.63 24.8729,204.63 26.5,202.5 Z"/></g>
<g><path style="opacity:1" fill="#23b3a2" d="M 40.5,197.5 C 47.1697,196.175 49.8363,198.842 48.5,205.5C 45.5,205.5 42.5,205.5 39.5,205.5C 39.8333,202.833 40.1667,200.167 40.5,197.5 Z"/></g>
<g><path style="opacity:1" fill="#2bb3bf" d="M 49.5,197.5 C 54.6762,198.338 58.0095,201.338 59.5,206.5C 56.5884,207.068 53.5884,207.068 50.5,206.5C 50.0371,203.518 49.7038,200.518 49.5,197.5 Z"/></g>
<g><path style="opacity:1" fill="#1fb581" d="M 33.5,198.5 C 35.1667,198.5 36.8333,198.5 38.5,198.5C 38.1667,201.167 37.8333,203.833 37.5,206.5C 34.319,206.742 31.319,206.742 28.5,206.5C 29.6772,203.469 31.3438,200.802 33.5,198.5 Z"/></g>
<g><path style="opacity:1" fill="#24b2b4" d="M 35.5,208.5 C 42.8285,206.98 50.1618,207.314 57.5,209.5C 56.6091,210.261 55.9424,211.261 55.5,212.5C 55.8877,215.026 55.8877,217.693 55.5,220.5C 55.7517,222.073 56.4183,223.406 57.5,224.5C 55.8333,224.5 54.1667,224.5 52.5,224.5C 51.515,231.18 47.8483,233.847 41.5,232.5C 46.0316,227.804 50.3649,222.971 54.5,218C 53.1931,214.86 50.8597,213.026 47.5,212.5C 45.3926,211.532 43.0593,211.198 40.5,211.5C 41.0906,210.849 41.7573,210.182 42.5,209.5C 40.2573,208.526 37.924,208.192 35.5,208.5 Z"/></g>
<g><path style="opacity:1" fill="#1eb579" d="M 35.5,208.5 C 37.924,208.192 40.2573,208.526 42.5,209.5C 41.7573,210.182 41.0906,210.849 40.5,211.5C 28.8836,216.58 26.3836,224.58 33,235.5C 35.4778,237.82 38.3111,239.486 41.5,240.5C 42.2341,241.708 42.5674,243.041 42.5,244.5C 36.9764,245.102 31.8098,244.102 27,241.5C 25,231.167 25,220.833 27,210.5C 29.5645,208.821 32.3979,208.154 35.5,208.5 Z"/></g>
<g><path style="opacity:1" fill="#1eafca" d="M 57.5,209.5 C 58.8221,209.33 59.9887,209.663 61,210.5C 62.7751,220.152 62.9417,229.818 61.5,239.5C 61.5,239.833 61.5,240.167 61.5,240.5C 59.6541,242.455 57.3208,243.455 54.5,243.5C 54.9465,240.99 54.2798,238.99 52.5,237.5C 56.789,233.943 58.4557,229.61 57.5,224.5C 56.4183,223.406 55.7517,222.073 55.5,220.5C 55.8877,217.693 55.8877,215.026 55.5,212.5C 55.9424,211.261 56.6091,210.261 57.5,209.5 Z"/></g>
<g><path style="opacity:1" fill="#39b6ee" d="M 151.5,211.5 C 152.167,211.5 152.833,211.5 153.5,211.5C 155.391,212.536 157.224,212.536 159,211.5C 159.308,212.308 159.808,212.975 160.5,213.5C 161.687,212.347 162.687,212.347 163.5,213.5C 161.919,222.085 157.252,228.418 149.5,232.5C 140.014,231.506 130.348,231.173 120.5,231.5C 120.771,229.57 121.771,228.236 123.5,227.5C 134.672,225.251 144.006,219.918 151.5,211.5 Z"/></g>
<g><path style="opacity:1" fill="#20aee3" d="M 63.5,211.5 C 69.0624,212.056 71.7291,215.056 71.5,220.5C 69.1944,220.007 66.861,219.674 64.5,219.5C 63.9084,216.873 63.5751,214.206 63.5,211.5 Z"/></g>
<g><path style="opacity:0.514" fill="#f1faf8" d="M 40.5,211.5 C 43.0593,211.198 45.3926,211.532 47.5,212.5C 50.8597,213.026 53.1931,214.86 54.5,218C 50.3649,222.971 46.0316,227.804 41.5,232.5C 47.8483,233.847 51.515,231.18 52.5,224.5C 54.1667,224.5 55.8333,224.5 57.5,224.5C 58.4557,229.61 56.789,233.943 52.5,237.5C 49.2376,239.88 45.5709,240.88 41.5,240.5C 38.3111,239.486 35.4778,237.82 33,235.5C 26.3836,224.58 28.8836,216.58 40.5,211.5 Z M 47.5,212.5 C 43.1119,212.568 39.1119,213.568 35.5,215.5C 35.0941,217.109 35.0941,218.443 35.5,219.5C 36.2868,218.758 36.9535,217.925 37.5,217C 42.109,215.926 46.2756,216.76 50,219.5C 50.49,218.207 50.6567,216.873 50.5,215.5C 49.5,215.5 48.5,215.5 47.5,215.5C 47.5,214.5 47.5,213.5 47.5,212.5 Z M 32.5,221.5 C 32.1826,224.572 32.5159,227.572 33.5,230.5C 34.9705,231.381 35.8038,232.714 36,234.5C 36.3333,234.167 36.6667,233.833 37,233.5C 38.487,234.253 38.6537,235.086 37.5,236C 39.4727,236.495 41.4727,236.662 43.5,236.5C 43.8333,240.5 44.1667,240.5 44.5,236.5C 46.5273,236.662 48.5273,236.495 50.5,236C 46.8484,235.501 43.1817,235.335 39.5,235.5C 39.5,233.5 39.5,231.5 39.5,229.5C 37.5,229.5 35.5,229.5 33.5,229.5C 33.2606,227.533 33.5939,225.699 34.5,224C 33.9341,223.005 33.2674,222.172 32.5,221.5 Z M 43.5,223.5 C 43.5173,225.028 44.184,225.528 45.5,225C 44.9558,224.283 44.2891,223.783 43.5,223.5 Z M 40.5,226.5 C 40.3691,227.376 40.7025,228.043 41.5,228.5C 42.6704,227.306 42.337,226.639 40.5,226.5 Z M 53.5,231.5 C 54.1174,231.389 54.6174,231.056 55,230.5C 55.1861,225.586 54.6861,225.919 53.5,231.5 Z"/></g>
<g><path style="opacity:1" fill="#19b555" d="M 22.5,211.5 C 23.6491,211.791 24.3158,212.624 24.5,214C 24.0566,215.825 23.7233,217.658 23.5,219.5C 21.4086,219.318 19.4086,219.652 17.5,220.5C 16.3691,218.926 16.2025,217.259 17,215.5C 18.8121,214.023 20.6455,212.69 22.5,211.5 Z"/></g>
<g><path style="opacity:1" fill="#1ab393" d="M 39.5,218.5 C 41.604,218.201 43.604,218.534 45.5,219.5C 43.1667,222.5 40.5,225.167 37.5,227.5C 35.9218,223.958 36.5885,220.958 39.5,218.5 Z"/></g>
<g><path style="opacity:1" fill="#27b95d" d="M 18.5,221.5 C 20.1667,221.5 21.8333,221.5 23.5,221.5C 23.5,224.5 23.5,227.5 23.5,230.5C 16.8421,231.836 14.1754,229.17 15.5,222.5C 16.791,222.737 17.791,222.404 18.5,221.5 Z"/></g>
<g><path style="opacity:1" fill="#25b0e5" d="M 72.5,229.5 C 69.8728,230.092 67.2062,230.425 64.5,230.5C 64.5,227.5 64.5,224.5 64.5,221.5C 71.1579,220.164 73.8246,222.83 72.5,229.5 Z"/></g>
<g><path style="opacity:1" fill="#25b75f" d="M 15.5,231.5 C 18.2062,231.575 20.8728,231.908 23.5,232.5C 24.0916,235.127 24.4249,237.794 24.5,240.5C 19.2043,239.871 16.2043,236.871 15.5,231.5 Z"/></g>
<g><path style="opacity:1" fill="#32b2e4" d="M 72.5,231.5 C 71.624,236.711 68.624,240.044 63.5,241.5C 62.7025,241.043 62.3691,240.376 62.5,239.5C 63.2161,237.444 63.8828,235.277 64.5,233C 67.1168,232.178 69.7835,231.678 72.5,231.5 Z"/></g>
<g><path style="opacity:1" fill="#05a8e7" d="M 168.5,213.5 C 168.833,213.5 169.167,213.5 169.5,213.5C 166.993,221.522 163.993,229.355 160.5,237C 170.174,240.178 172.84,246.345 168.5,255.5C 161.08,262.298 153.914,261.964 147,254.5C 145.872,252.655 145.372,250.655 145.5,248.5C 141.5,248.5 137.5,248.5 133.5,248.5C 129.273,246.72 124.606,245.886 119.5,246C 125.938,245.356 125.771,244.522 119,243.5C 117.806,241.976 116.306,240.81 114.5,240C 111.167,239.667 107.833,239.333 104.5,239C 108.025,238.821 111.359,238.321 114.5,237.5C 114.833,237.5 115.167,237.5 115.5,237.5C 126.172,237.667 136.839,237.5 147.5,237C 148.582,235.67 149.249,234.17 149.5,232.5C 157.252,228.418 161.919,222.085 163.5,213.5C 165.36,212.929 167.027,212.929 168.5,213.5 Z"/></g>
<g><path style="opacity:0.881" fill="#019bd9" d="M 114.5,237.5 C 111.359,238.321 108.025,238.821 104.5,239C 107.833,239.333 111.167,239.667 114.5,240C 116.306,240.81 117.806,241.976 119,243.5C 125.771,244.522 125.938,245.356 119.5,246C 124.606,245.886 129.273,246.72 133.5,248.5C 128.833,248.5 124.167,248.5 119.5,248.5C 118.502,255.662 114.336,259.662 107,260.5C 104.133,260.161 101.633,259.161 99.5,257.5C 95.22,253.199 94.3867,248.199 97,242.5C 101.915,237.962 107.749,236.295 114.5,237.5 Z"/></g>
<g><path style="opacity:1" fill="#13b0ab" d="M 52.5,237.5 C 54.2798,238.99 54.9465,240.99 54.5,243.5C 50.5662,244.36 46.5662,244.693 42.5,244.5C 42.5674,243.041 42.2341,241.708 41.5,240.5C 45.5709,240.88 49.2376,239.88 52.5,237.5 Z"/></g>
<g><path style="opacity:0.969" fill="#2f528f" d="M 127.5,201.5 C 128.391,202.11 129.391,202.443 130.5,202.5C 131.265,203.66 132.265,204.66 133.5,205.5C 134.086,205.291 134.586,204.957 135,204.5C 136.049,206.107 137.549,206.773 139.5,206.5C 139.5,207.167 139.5,207.833 139.5,208.5C 133.939,214.608 128.606,220.941 123.5,227.5C 121.771,228.236 120.771,229.57 120.5,231.5C 118.844,233.46 117.177,235.46 115.5,237.5C 115.167,237.5 114.833,237.5 114.5,237.5C 107.749,236.295 101.915,237.962 97,242.5C 94.3867,248.199 95.22,253.199 99.5,257.5C 91.7404,267.102 83.7404,276.602 75.5,286C 74.5,286.667 73.5,286.667 72.5,286C 71.1218,284.287 69.4552,282.953 67.5,282C 65.7888,280.867 65.2888,279.367 66,277.5C 86.7129,252.292 107.213,226.959 127.5,201.5 Z"/></g>
<g><path style="opacity:1" fill="#42b8da" d="M 59.5,250.5 C 60.2746,247.481 61.6079,244.814 63.5,242.5C 65.1703,242.249 66.6703,241.582 68,240.5C 66.8463,245.073 64.013,248.406 59.5,250.5 Z"/></g>
<g><path style="opacity:1" fill="#32ba71" d="M 28.5,250.5 C 27.8333,250.167 27.1667,249.833 26.5,249.5C 23.723,247.321 21.3897,244.654 19.5,241.5C 19.6667,241.167 19.8333,240.833 20,240.5C 21.7342,242.451 23.9009,243.451 26.5,243.5C 26.8782,245.921 27.5448,248.254 28.5,250.5 Z"/></g>
<g><path style="opacity:1" fill="#31b88b" d="M 37.5,254.5 C 35.8828,253.962 34.2161,253.629 32.5,253.5C 32.5,252.833 32.1667,252.5 31.5,252.5C 30.7878,250.072 29.7878,247.739 28.5,245.5C 28.8333,245.167 29.1667,244.833 29.5,244.5C 32.1767,245.074 34.8434,245.741 37.5,246.5C 38.7757,249.303 38.7757,251.97 37.5,254.5 Z"/></g>
<g><path style="opacity:1" fill="#27b0b9" d="M 58.5,251.5 C 58.6716,252.492 58.3382,253.158 57.5,253.5C 57.1583,252.662 56.4916,252.328 55.5,252.5C 53.5786,253.363 51.5786,254.029 49.5,254.5C 49.7038,251.482 50.0371,248.482 50.5,245.5C 53.2492,245.726 55.9159,245.393 58.5,244.5C 58.9855,246.777 58.3188,248.944 56.5,251C 57.0944,251.464 57.7611,251.631 58.5,251.5 Z"/></g>
<g><path style="opacity:1" fill="#2db6a4" d="M 47.5,253.5 C 46.8478,254.725 45.6811,255.392 44,255.5C 42.3189,255.392 41.1522,254.725 40.5,253.5C 39.7814,251.236 39.448,248.903 39.5,246.5C 42.5,246.5 45.5,246.5 48.5,246.5C 48.3259,248.861 47.9926,251.194 47.5,253.5 Z"/></g>
<g><path style="opacity:0.46" fill="#f5f5f4" d="M 74.5,222.5 C 74.5,227.833 74.5,233.167 74.5,238.5C 73.5,238.5 72.5,238.5 71.5,238.5C 71.7852,240.288 71.4519,241.955 70.5,243.5C 68.3438,244.983 67.0105,246.983 66.5,249.5C 65.5,249.5 64.5,249.5 63.5,249.5C 63.5,250.5 63.5,251.5 63.5,252.5C 62.5,252.5 61.5,252.5 60.5,252.5C 60.5,254.167 60.5,255.833 60.5,257.5C 59.5,257.5 58.5,257.5 57.5,257.5C 57.6602,259.199 57.4935,260.866 57,262.5C 55.4189,266.03 53.9189,269.53 52.5,273C 53.7832,276.064 54.4499,279.397 54.5,283C 54.3333,286.167 54.1667,289.333 54,292.5C 47.2976,291.259 40.6309,291.259 34,292.5C 33.5005,286.175 33.3338,279.842 33.5,273.5C 37.2434,273.541 37.4101,272.874 34,271.5C 33.4355,266.537 32.2688,261.87 30.5,257.5C 29.5,257.5 28.5,257.5 27.5,257.5C 27.33,256.178 27.6634,255.011 28.5,254C 27.2412,253.077 25.9079,252.243 24.5,251.5C 24.8627,250.817 25.1961,250.15 25.5,249.5C 25.8333,249.5 26.1667,249.5 26.5,249.5C 27.1667,249.833 27.8333,250.167 28.5,250.5C 28.9321,251.71 29.5987,252.71 30.5,253.5C 32.5723,260.325 35.2389,266.992 38.5,273.5C 38.8333,273 39.1667,272.5 39.5,272C 37.2895,265.753 34.9561,259.586 32.5,253.5C 34.2161,253.629 35.8828,253.962 37.5,254.5C 37.56,255.043 37.8933,255.376 38.5,255.5C 39.1818,254.757 39.8485,254.091 40.5,253.5C 41.1522,254.725 42.3189,255.392 44,255.5C 45.6811,255.392 46.8478,254.725 47.5,253.5C 48.1667,253.833 48.8333,254.167 49.5,254.5C 51.5786,254.029 53.5786,253.363 55.5,252.5C 53.3197,259.033 50.9864,265.533 48.5,272C 48.8333,272.5 49.1667,273 49.5,273.5C 52.634,267.028 55.3007,260.362 57.5,253.5C 58.3382,253.158 58.6716,252.492 58.5,251.5C 59.1667,251.5 59.5,251.167 59.5,250.5C 64.013,248.406 66.8463,245.073 68,240.5C 66.6703,241.582 65.1703,242.249 63.5,242.5C 62.1667,242.5 61.5,241.833 61.5,240.5C 61.5,240.167 61.5,239.833 61.5,239.5C 61.8333,239.5 62.1667,239.5 62.5,239.5C 62.3691,240.376 62.7025,241.043 63.5,241.5C 68.624,240.044 71.624,236.711 72.5,231.5C 72.5,230.833 72.5,230.167 72.5,229.5C 73.1667,227.167 73.8333,224.833 74.5,222.5 Z M 38.5,257.5 C 42.5,257.5 46.5,257.5 50.5,257.5C 48.3287,262.442 46.9953,267.776 46.5,273.5C 44.5328,273.739 42.6995,273.406 41,272.5C 40.9066,268.45 39.7399,264.783 37.5,261.5C 38.2458,260.264 38.5792,258.93 38.5,257.5 Z"/></g>
<g><path style="opacity:1" fill="#434570" d="M 55.5,252.5 C 56.4916,252.328 57.1583,252.662 57.5,253.5C 55.3007,260.362 52.634,267.028 49.5,273.5C 49.1667,273 48.8333,272.5 48.5,272C 50.9864,265.533 53.3197,259.033 55.5,252.5 Z"/></g>
<g><path style="opacity:1" fill="#42436f" d="M 31.5,252.5 C 32.1667,252.5 32.5,252.833 32.5,253.5C 34.9561,259.586 37.2895,265.753 39.5,272C 39.1667,272.5 38.8333,273 38.5,273.5C 35.2389,266.992 32.5723,260.325 30.5,253.5C 30.5,252.833 30.8333,252.5 31.5,252.5 Z"/></g>
<g><path style="opacity:1" fill="#fd9b2a" d="M 51.5,286.5 C 51.5,284.5 51.5,282.5 51.5,280.5C 46.0557,279.892 41.0557,280.558 36.5,282.5C 35.5318,280.393 35.1984,278.059 35.5,275.5C 41.1667,275.5 46.8333,275.5 52.5,275.5C 52.815,279.371 52.4816,283.038 51.5,286.5 Z"/></g>
<g><path style="opacity:1" fill="#fe7b25" d="M 51.5,286.5 C 51.67,287.822 51.3366,288.989 50.5,290C 46.1287,290.828 41.7953,290.661 37.5,289.5C 36.6258,287.253 36.2924,284.92 36.5,282.5C 41.0557,280.558 46.0557,279.892 51.5,280.5C 51.5,282.5 51.5,284.5 51.5,286.5 Z"/></g>
<g><path style="opacity:0.932" fill="#b3c6e6" d="M 59.5,285.5 C 67.8246,283.993 71.3246,287.327 70,295.5C 65.6667,299.5 61.3333,299.5 57,295.5C 55.8613,291.579 56.6946,288.246 59.5,285.5 Z"/></g>
<g><path style="opacity:0.909" fill="#d8d8d8" d="M 48.5,299.5 C 56.8285,298.664 59.9952,302.33 58,310.5C 54,314.5 50,314.5 46,310.5C 44.8118,306.259 45.6451,302.592 48.5,299.5 Z"/></g>
</svg>
